Coordinates
version=1
nRows=38
nColumns=38
inDegrees=no

Units are S.I. units (second, meters, Newtons, ...)
If the header above contains a line with 'inDegrees', this indicates whether rotational values are in degrees (yes) or radians (no).

endheader
time	pelvis_tilt	pelvis_list	pelvis_rotation	pelvis_tx	pelvis_ty	pelvis_tz	hip_flexion_r	hip_adduction_r	hip_rotation_r	knee_angle_r	ankle_angle_r	subtalar_angle_r	mtp_angle_r	hip_flexion_l	hip_adduction_l	hip_rotation_l	knee_angle_l	ankle_angle_l	subtalar_angle_l	mtp_angle_l	lumbar_extension	lumbar_bending	lumbar_rotation	arm_flex_r	arm_add_r	arm_rot_r	elbow_flex_r	pro_sup_r	wrist_flex_r	wrist_dev_r	arm_flex_l	arm_add_l	arm_rot_l	elbow_flex_l	pro_sup_l	wrist_flex_l	wrist_dev_l
45	-0.0650948	1.3307	1.60397	0.68109	0.197506	0.995809	0.408469	-0.240623	-0.552795	0.498961	0.134084	0	0	0.333039	-0.0744015	-0.421622	0.336075	0.161404	0	0	-0.183626	-0.0394639	0.08507	-0.049748	-0.340367	0.0116834	0.755432	1.27934	0	0	0.0616709	-0.228071	0.13414	0.589222	1.36377	0	0
45.01	-0.0584354	1.34012	1.59524	0.680829	0.199205	0.998134	0.385741	-0.231179	-0.554225	0.473328	0.126298	0	0	0.309274	-0.0690196	-0.413028	0.308225	0.149469	0	0	-0.179621	-0.0356364	0.0849902	-0.0644722	-0.336095	0.00834666	0.760361	1.28576	0	0	0.0407353	-0.220944	0.124671	0.602308	1.36354	0	0
45.02	-0.0515092	1.34909	1.58622	0.68055	0.200838	1.00023	0.364048	-0.222228	-0.555435	0.448568	0.11873	0	0	0.28534	-0.0633091	-0.403003	0.278826	0.136852	0	0	-0.175188	-0.0319212	0.0850457	-0.0785426	-0.332152	0.00711579	0.764146	1.28349	0	0	0.0214981	-0.213527	0.115096	0.613252	1.36368	0	0
45.03	-0.0436923	1.35828	1.57603	0.680318	0.202361	1.00217	0.342855	-0.213587	-0.556423	0.425283	0.111965	0	0	0.261913	-0.0586109	-0.394911	0.251593	0.125341	0	0	-0.172061	-0.028342	0.0854804	-0.0913582	-0.327673	0.00371877	0.766939	1.28563	0	0	0.00422108	-0.205973	0.105622	0.622638	1.36269	0	0
45.04	-0.0348195	1.36702	1.56501	0.680069	0.203833	1.00392	0.322419	-0.205236	-0.557151	0.402626	0.10522	0	0	0.239282	-0.0543901	-0.387428	0.225239	0.11396	0	0	-0.168563	-0.0247892	0.0855202	-0.10343	-0.322904	-0.00081849	0.76882	1.28886	0	0	-0.0122274	-0.198088	0.0947685	0.630555	1.36141	0	0
45.05	-0.026608	1.37507	1.55469	0.67978	0.205188	1.00545	0.303104	-0.197415	-0.557118	0.380372	0.0983158	0	0	0.217681	-0.0502621	-0.380525	0.199739	0.102868	0	0	-0.164722	-0.0216226	0.0853568	-0.114613	-0.31764	-0.00618728	0.769582	1.29281	0	0	-0.0272672	-0.189982	0.083023	0.636573	1.35941	0	0
45.06	-0.0190626	1.38255	1.54514	0.679474	0.206436	1.00679	0.284847	-0.190314	-0.557178	0.358955	0.0915358	0	0	0.196646	-0.0460974	-0.374412	0.174212	0.0918097	0	0	-0.1607	-0.0188686	0.0851527	-0.124954	-0.311889	-0.0123014	0.769164	1.29674	0	0	-0.040594	-0.181886	0.0712584	0.640582	1.35648	0	0
45.07	-0.0118749	1.38942	1.536	0.679149	0.207562	1.00794	0.267803	-0.183921	-0.557282	0.338763	0.0852856	0	0	0.176168	-0.0419375	-0.369325	0.14849	0.0808188	0	0	-0.156442	-0.0164141	0.0851651	-0.134885	-0.30575	-0.0196413	0.768193	1.30126	0	0	-0.0520024	-0.173873	0.0607357	0.643101	1.35306	0	0
45.08	-0.00365288	1.39572	1.52591	0.678825	0.208586	1.00891	0.25169	-0.177746	-0.557655	0.319303	0.0794469	0	0	0.156316	-0.0380765	-0.364983	0.122822	0.0700049	0	0	-0.152004	-0.0139041	0.0853579	-0.144239	-0.299317	-0.0281817	0.766617	1.3068	0	0	-0.0615885	-0.165963	0.0516561	0.643672	1.35005	0	0
45.09	0.0058698	1.40141	1.51457	0.678505	0.209506	1.00971	0.236527	-0.171665	-0.558362	0.300404	0.0738509	0	0	0.136944	-0.0344167	-0.360569	0.0967583	0.059008	0	0	-0.147381	-0.0113138	0.0857012	-0.152938	-0.29246	-0.0380252	0.764401	1.31299	0	0	-0.0694447	-0.15827	0.0439318	0.642592	1.34812	0	0
45.1	0.0170777	1.40645	1.50174	0.678196	0.210297	1.01035	0.2223	-0.165526	-0.559395	0.281897	0.0684888	0	0	0.118136	-0.0310156	-0.35581	0.0701926	0.0476801	0	0	-0.142632	-0.0085657	0.0860397	-0.160874	-0.28554	-0.0477566	0.761548	1.31828	0	0	-0.0756143	-0.150998	0.0373258	0.639972	1.34758	0	0
45.11	0.029259	1.41082	1.48816	0.677866	0.210897	1.0108	0.209454	-0.159589	-0.560031	0.264546	0.0635029	0	0	0.100369	-0.0278682	-0.351156	0.0440172	0.0364828	0	0	-0.138206	-0.00581526	0.086115	-0.167687	-0.279193	-0.0560971	0.758283	1.32255	0	0	-0.0801318	-0.14439	0.0318782	0.636056	1.34815	0	0
45.12	0.0438368	1.41437	1.47281	0.677478	0.21146	1.01104	0.197899	-0.153681	-0.560495	0.248357	0.058853	0	0	0.0835803	-0.0250856	-0.345059	0.0179951	0.0251062	0	0	-0.132994	-0.00258257	0.0854647	-0.174089	-0.273327	-0.0636042	0.754849	1.32659	0	0	-0.0839783	-0.13836	0.0269656	0.630047	1.35092	0	0
45.13	0.0610895	1.41754	1.45532	0.677038	0.211955	1.01114	0.187612	-0.148092	-0.560683	0.23443	0.054951	0	0	0.0677936	-0.0229097	-0.338179	0	0.0147974	0	0	-0.128118	0.00111264	0.0841976	-0.179596	-0.267694	-0.0711001	0.751233	1.33135	0	0	-0.0867243	-0.13257	0.0218086	0.624183	1.35668	0	0
45.14	0.0784762	1.42162	1.44161	0.676509	0.212236	1.01132	0.177425	-0.142914	-0.559069	0.223466	0.050328	0	0	0.0627205	-0.026638	-0.340022	0	0.0151761	0	0	-0.124355	0.00433053	0.0809506	-0.184347	-0.259928	-0.0851108	0.745603	1.35195	0	0	-0.0869612	-0.126216	0.0103328	0.615682	1.37776	0	0
45.15	0.0913738	1.4244	1.4289	0.675984	0.212284	1.01124	0.172489	-0.141098	-0.55898	0.220359	0.0499246	0	0	0.0573961	-0.027255	-0.339156	0	0.014504	0	0	-0.120578	0.00690278	0.0792785	-0.187931	-0.255606	-0.0895128	0.742302	1.35136	0	0	-0.0875585	-0.122253	0.00861038	0.609622	1.37514	0	0
45.16	0.101487	1.42698	1.41862	0.675413	0.212178	1.0111	0.170017	-0.140975	-0.558457	0.221659	0.0505555	0	0	0.0528804	-0.0274873	-0.337642	0	0.0142286	0	0	-0.117693	0.00894739	0.0772474	-0.19015	-0.252589	-0.0902602	0.739677	1.34599	0	0	-0.0873905	-0.119149	0.00821387	0.604071	1.37204	0	0
45.17	0.108301	1.42945	1.41181	0.674748	0.211967	1.01099	0.169344	-0.142425	-0.55775	0.226468	0.0520576	0	0	0.0493198	-0.0272738	-0.335426	0	0.0140034	0	0	-0.115644	0.010464	0.0747403	-0.190892	-0.249184	-0.0916477	0.735394	1.34776	0	0	-0.0854086	-0.11613	0.00740164	0.597207	1.37276	0	0
45.18	0.110221	1.43234	1.41009	0.673982	0.211666	1.01095	0.169582	-0.145548	-0.556937	0.233913	0.0541349	0	0	0.0463196	-0.0263254	-0.332932	0	0.0137929	0	0	-0.115306	0.011014	0.0714166	-0.189842	-0.246072	-0.0920356	0.730762	1.34976	0	0	-0.0821168	-0.113889	0.00800815	0.590704	1.37338	0	0
45.19	0.110687	1.4355	1.41105	0.673111	0.211336	1.01101	0.169845	-0.149426	-0.557068	0.24259	0.0566346	0	0	0.043854	-0.0252304	-0.328663	0	0.013823	0	0	-0.116204	0.0111267	0.0664939	-0.187289	-0.242792	-0.0929059	0.725299	1.35155	0	0	-0.0777929	-0.112741	0.00969179	0.584088	1.37505	0	0
45.2	0.112493	1.43884	1.41137	0.672198	0.211004	1.01116	0.169735	-0.153189	-0.557647	0.251295	0.0590767	0	0	0.0416004	-0.0243689	-0.323293	0	0.014305	0	0	-0.118209	0.0112935	0.060819	-0.183768	-0.239384	-0.0946641	0.719884	1.35254	0	0	-0.0725799	-0.112379	0.0121118	0.577544	1.37807	0	0
45.21	0.117137	1.44197	1.40919	0.671275	0.210661	1.01134	0.169485	-0.156466	-0.558523	0.259516	0.0610998	0	0	0.0397143	-0.0239443	-0.31805	0	0.015602	0	0	-0.12066	0.0118554	0.0549425	-0.179876	-0.235968	-0.0969612	0.714828	1.35279	0	0	-0.0669148	-0.11263	0.0161773	0.571305	1.38176	0	0
45.22	0.125589	1.44665	1.40337	0.670326	0.210002	1.01169	0.16809	-0.159819	-0.559923	0.268738	0.0633191	0	0	0.0364113	-0.0237168	-0.31275	0	0.0178329	0	0	-0.127092	0.0125087	0.049474	-0.175488	-0.237689	-0.0798415	0.713813	1.29722	0	0	-0.0604545	-0.118383	0.0454786	0.5722	1.33052	0	0
45.23	0.134352	1.4472	1.39633	0.669485	0.209945	1.0117	0.170327	-0.162034	-0.56062	0.27681	0.0651453	0	0	0.0366378	-0.0244093	-0.31007	0	0.0200854	0	0	-0.125643	0.0140998	0.0454796	-0.172345	-0.228648	-0.107792	0.70357	1.3709	0	0	-0.0546779	-0.116929	0.0396544	0.56256	1.36951	0	0
45.24	0.155667	1.44813	1.37246	0.668809	0.209664	1.01169	0.173442	-0.162976	-0.559987	0.2859	0.0667103	0	0	0.0277349	-0.0216417	-0.303084	0	0.0185121	0	0	-0.126941	0.0175327	0.0430876	-0.169563	-0.231699	-0.0931761	0.704002	1.32912	0	0	-0.0499503	-0.118703	0.0500866	0.560291	1.35693	0	0
45.25	0.160298	1.4492	1.36726	0.668158	0.209019	1.01178	0.179105	-0.167525	-0.559871	0.300941	0.0707419	0	0	0.0289765	-0.0221901	-0.304269	0	0.0208378	0	0	-0.128216	0.0182304	0.0431539	-0.165863	-0.225114	-0.114771	0.69722	1.37494	0	0	-0.0421428	-0.122335	0.0669802	0.556654	1.35281	0	0
45.26	0.167019	1.44978	1.35877	0.667581	0.208262	1.01182	0.18584	-0.17128	-0.556828	0.31562	0.0734164	0	0	0.0297552	-0.0228117	-0.307026	0	0.0222286	0	0	-0.129359	0.0194264	0.0434384	-0.162862	-0.224104	-0.116498	0.695105	1.37541	0	0	-0.0354125	-0.124816	0.0771969	0.555394	1.34835	0	0
45.27	0.170997	1.4498	1.35215	0.667076	0.207412	1.01179	0.194356	-0.175432	-0.552258	0.331935	0.0755737	0	0	0.0303785	-0.022961	-0.3102	0	0.0223835	0	0	-0.130009	0.0203888	0.044501	-0.159719	-0.223713	-0.116674	0.692749	1.37658	0	0	-0.0289033	-0.127018	0.0846076	0.555086	1.34621	0	0
45.28	0.166415	1.44898	1.35265	0.666705	0.206436	1.01166	0.206193	-0.18116	-0.546406	0.352355	0.0787747	0	0	0.0315412	-0.0220512	-0.31414	0	0.0215783	0	0	-0.129649	0.0203016	0.0468751	-0.156048	-0.223344	-0.117581	0.690233	1.37908	0	0	-0.0226207	-0.130079	0.0928279	0.555594	1.34541	0	0
45.29	0.160657	1.44798	1.35367	0.666476	0.205429	1.01152	0.21926	-0.187028	-0.539764	0.374096	0.08172	0	0	0.0323694	-0.0210023	-0.318387	0	0.0208495	0	0	-0.129058	0.0199453	0.0496835	-0.151811	-0.223139	-0.118577	0.687314	1.38329	0	0	-0.0169875	-0.133505	0.0993061	0.557809	1.3463	0	0
45.3	0.150147	1.4467	1.35927	0.66634	0.204405	1.01131	0.234138	-0.194247	-0.534406	0.398989	0.0858938	0	0	0.0333756	-0.0192671	-0.321717	0	0.0196326	0	0	-0.128069	0.0188814	0.0520999	-0.147018	-0.223261	-0.117883	0.683613	1.39077	0	0	-0.0125542	-0.137606	0.104342	0.562724	1.34809	0	0
45.31	0.158233	1.44743	1.34936	0.666981	0.20332	1.0113	0.245798	-0.209062	-0.565929	0.434289	0.0928772	0	0	0.0405199	-0.0262704	-0.330574	0	0.0232266	0	0	-0.129252	0.0183576	0.0536631	-0.143506	-0.22336	-0.11036	0.682287	1.3782	0	0	-0.00712269	-0.142483	0.104119	0.566311	1.35148	0	0
45.32	0.154602	1.44739	1.34965	0.667077	0.20247	1.01123	0.257889	-0.215657	-0.563642	0.457429	0.0955331	0	0	0.04084	-0.0258251	-0.331331	0	0.0215806	0	0	-0.129468	0.0178708	0.0540127	-0.138703	-0.223747	-0.108953	0.680499	1.38197	0	0	-0.00326886	-0.147197	0.106871	0.57113	1.35283	0	0
45.33	0.154777	1.44714	1.34563	0.667401	0.201634	1.01121	0.269176	-0.220123	-0.559237	0.477039	0.0974781	0	0	0.0412423	-0.0261383	-0.332527	0	0.0197838	0	0	-0.129592	0.0178866	0.0545784	-0.133931	-0.224206	-0.107929	0.679547	1.38627	0	0	0.000416334	-0.152108	0.109212	0.575738	1.35454	0	0
45.34	0.159695	1.44697	1.3374	0.667883	0.200918	1.01127	0.278869	-0.222848	-0.55542	0.493552	0.101106	0	0	0.0413404	-0.027197	-0.332282	0	0.0175676	0	0	-0.129792	0.0184846	0.0546594	-0.129706	-0.224763	-0.106205	0.679107	1.39151	0	0	0.00395519	-0.156968	0.110749	0.579736	1.35639	0	0
45.35	0.170382	1.44698	1.32421	0.668504	0.200279	1.01145	0.28651	-0.223536	-0.552434	0.506213	0.108151	0	0	0.0409727	-0.0291017	-0.329826	0	0.0144571	0	0	-0.130379	0.0197372	0.0541612	-0.125851	-0.225312	-0.104993	0.679719	1.39752	0	0	0.00754216	-0.161741	0.111708	0.583013	1.35803	0	0
45.36	0.18536	1.44698	1.30763	0.669199	0.199646	1.01173	0.292217	-0.222341	-0.550264	0.514725	0.11783	0	0	0.0403592	-0.031727	-0.324656	0	0.00999982	0	0	-0.131405	0.0214953	0.0533149	-0.122344	-0.225788	-0.104742	0.681337	1.40166	0	0	0.0117882	-0.166244	0.111961	0.585142	1.35883	0	0
45.37	0.203276	1.44629	1.28907	0.669934	0.19901	1.01202	0.296494	-0.219685	-0.55018	0.518548	0.128407	0	0	0.0409135	-0.0350625	-0.322815	0	0.00762318	0	0	-0.132014	0.0239336	0.0519083	-0.119341	-0.226201	-0.106056	0.683956	1.40422	0	0	0.016588	-0.170492	0.112128	0.586196	1.35853	0	0
